<svg xmlns="http://www.w3.org/2000/svg" viewBox="0 0 640 640"><!--! Icon adapted from Font Awesome Free 7.0.1 by @fontawesome - https://fontawesome.com License - https://fontawesome.com/license/free (Icons: CC BY 4.0, Fonts: SIL OFL 1.1, Code: MIT License) Copyright 2025 Fonticons, Inc. --><path fill="#fff" d="m264 112h112c4.4 0 8 3.6 8 8v40h-128v-40c0-4.4 3.6-8 8-8zm312 112c0-35.3-28.7-64-64-64h-80v-40c0-30.9-25.1-56-56-56h-112c-30.9 0-56 25.1-56 56v40h-80c-35.3 0-64 28.7-64 64v256c0 35.3 28.7 64 64 64h384c35.3 0 64-28.7 64-64z"/></svg>
